
      <svg data-logo="logo" xmlns="http://www.w3.org/2000/svg" viewBox="0 0 234 43">
        <g id="logogram" transform="translate(0, 1) rotate(0)"><path d="M40.1509 20.27C40.1509 31.3157 31.1966 40.27 20.1509 40.27C9.10524 40.27 0.150879 31.3157 0.150879 20.27C0.150879 9.2243 9.10524 0.269989 20.1509 0.269989C31.1966 0.269989 40.1509 9.2243 40.1509 20.27Z" fill="#68DBFF"/><path d="M63.1509 20.27C63.1509 31.3157 54.1964 40.27 43.1508 40.27C32.1052 40.27 23.1509 31.3157 23.1509 20.27C23.1509 9.2243 32.1052 0.269989 43.1508 0.269989C54.1964 0.269989 63.1509 9.2243 63.1509 20.27Z" fill="#FF7917"/><path fill-rule="evenodd" clip-rule="evenodd" d="M31.6509 36.6351C36.792 33.0157 40.1509 27.0351 40.1509 20.27C40.1509 13.5049 36.792 7.52425 31.6509 3.90488C26.5098 7.52425 23.1509 13.5049 23.1509 20.27C23.1509 27.0351 26.5098 33.0157 31.6509 36.6351Z" fill="#5D2C02"/></g>
        <g id="logotype" transform="translate(70, 8)"><path fill="#ea580c" d="M17.64 27.38L17.64 27.38Q14.58 27.38 12.31 26.44Q10.05 25.50 8.79 23.65Q7.52 21.80 7.45 19.10L7.45 19.10L12.53 19.10Q12.63 20.39 13.30 21.25Q13.96 22.11 15.07 22.54Q16.19 22.97 17.59 22.97L17.59 22.97Q18.99 22.97 20.02 22.57Q21.06 22.16 21.64 21.43Q22.22 20.69 22.22 19.72L22.22 19.72Q22.22 18.85 21.70 18.26Q21.18 17.67 20.20 17.24Q19.23 16.81 17.83 16.49L17.83 16.49L15.02 15.79Q11.79 15.00 9.96 13.32Q8.14 11.64 8.14 8.87L8.14 8.87Q8.14 6.56 9.38 4.83Q10.61 3.11 12.78 2.15Q14.94 1.19 17.71 1.19L17.71 1.19Q20.53 1.19 22.63 2.16Q24.73 3.13 25.91 4.84Q27.09 6.56 27.12 8.80L27.12 8.80L22.08 8.80Q21.94 7.26 20.77 6.42Q19.60 5.59 17.66 5.59L17.66 5.59Q16.34 5.59 15.40 5.96Q14.46 6.34 13.96 7.00Q13.47 7.67 13.47 8.53L13.47 8.53Q13.47 9.47 14.04 10.09Q14.61 10.71 15.54 11.10Q16.48 11.48 17.55 11.74L17.55 11.74L19.86 12.30Q21.47 12.66 22.85 13.28Q24.23 13.89 25.28 14.79Q26.32 15.69 26.89 16.92Q27.46 18.15 27.46 19.75L27.46 19.75Q27.46 22.06 26.30 23.78Q25.14 25.50 22.94 26.44Q20.73 27.38 17.64 27.38ZM36.96 17.48L33.48 21.41L33.48 15.24L34.25 15.24L40.50 7.89L46.43 7.89L38.18 17.48L36.96 17.48ZM33.96 27L28.83 27L28.83 1.54L33.96 1.54L33.96 27ZM46.79 27L40.76 27L35.02 18.63L38.45 14.99L46.79 27ZM51.98 27L46.86 27L46.86 7.89L51.98 7.89L51.98 27ZM49.42 5.40L49.42 5.40Q48.26 5.40 47.44 4.63Q46.62 3.86 46.62 2.77L46.62 2.77Q46.62 1.67 47.44 0.90Q48.26 0.13 49.42 0.13L49.42 0.13Q50.58 0.13 51.41 0.90Q52.24 1.66 52.24 2.77L52.24 2.77Q52.24 3.86 51.41 4.63Q50.58 5.40 49.42 5.40ZM54.07 1.54L59.19 1.54L59.19 27L54.07 27L54.07 1.54ZM61.28 1.54L66.40 1.54L66.40 27L61.28 27L61.28 1.54ZM81.39 5.86L73.60 5.86L73.60 1.54L94.39 1.54L94.39 5.86L86.62 5.86L86.62 27L81.39 27L81.39 5.86ZM100.71 27L95.59 27L95.59 7.89L100.54 7.89L100.54 11.23L100.75 11.23Q101.28 9.45 102.52 8.54Q103.76 7.64 105.36 7.64L105.36 7.64Q105.76 7.64 106.21 7.68Q106.66 7.72 107.02 7.81L107.02 7.81L107.02 12.39Q106.68 12.27 106.03 12.20Q105.38 12.13 104.80 12.13L104.80 12.13Q103.64 12.13 102.70 12.64Q101.76 13.14 101.24 14.04Q100.71 14.93 100.71 16.13L100.71 16.13L100.71 27ZM112.90 27.38L112.90 27.38Q111.09 27.38 109.64 26.74Q108.20 26.09 107.37 24.82Q106.54 23.55 106.54 21.65L106.54 21.65Q106.54 20.06 107.13 18.98Q107.72 17.91 108.74 17.26Q109.75 16.61 111.04 16.27Q112.33 15.93 113.75 15.79L113.75 15.79Q115.41 15.62 116.43 15.47Q117.44 15.33 117.91 15.01Q118.38 14.70 118.38 14.08L118.38 14.08L118.38 13.99Q118.38 13.17 118.04 12.61Q117.70 12.05 117.03 11.75Q116.37 11.45 115.39 11.45L115.39 11.45Q114.40 11.45 113.67 11.75Q112.93 12.05 112.47 12.54Q112.01 13.04 111.79 13.65L111.79 13.65L107.09 12.87Q107.58 11.21 108.73 10.05Q109.87 8.88 111.57 8.27Q113.27 7.65 115.39 7.65L115.39 7.65Q116.95 7.65 118.40 8.02Q119.85 8.39 121.01 9.16Q122.16 9.93 122.84 11.16Q123.51 12.39 123.51 14.13L123.51 14.13L123.51 27L118.66 27L118.66 24.35L118.49 24.35Q118.02 25.24 117.26 25.91Q116.49 26.59 115.40 26.98Q114.32 27.38 112.90 27.38ZM114.35 23.77L114.35 23.77Q115.56 23.77 116.48 23.29Q117.39 22.81 117.90 21.99Q118.42 21.17 118.42 20.16L118.42 20.16L118.42 18.10Q118.20 18.27 117.73 18.40Q117.27 18.54 116.71 18.64Q116.14 18.75 115.60 18.83Q115.05 18.92 114.62 18.97L114.62 18.97Q113.68 19.10 112.97 19.41Q112.25 19.72 111.86 20.22Q111.46 20.73 111.46 21.51L111.46 21.51Q111.46 22.25 111.84 22.75Q112.21 23.26 112.85 23.51Q113.50 23.77 114.35 23.77ZM132.60 27.32L132.60 27.32Q130.40 27.32 128.63 26.19Q126.86 25.05 125.83 22.86Q124.81 20.66 124.81 17.48L124.81 17.48Q124.81 14.22 125.87 12.03Q126.93 9.84 128.69 8.75Q130.45 7.65 132.57 7.65L132.57 7.65Q134.19 7.65 135.27 8.20Q136.34 8.75 137.01 9.55Q137.68 10.35 138.00 11.11L138.00 11.11L138.17 11.11L138.17 1.54L143.30 1.54L143.30 27L138.26 27L138.26 23.94L138.00 23.94Q137.66 24.71 136.98 25.49Q136.31 26.27 135.23 26.79Q134.16 27.32 132.60 27.32ZM134.17 23.21L134.17 23.21Q135.47 23.21 136.39 22.49Q137.32 21.77 137.80 20.48Q138.27 19.19 138.27 17.46L138.27 17.46Q138.27 15.72 137.80 14.45Q137.33 13.17 136.41 12.47Q135.49 11.76 134.17 11.76L134.17 11.76Q132.82 11.76 131.91 12.49Q130.99 13.23 130.53 14.51Q130.07 15.79 130.07 17.46L130.07 17.46Q130.07 19.14 130.54 20.44Q131.01 21.74 131.93 22.47Q132.84 23.21 134.17 23.21ZM154.03 27.38L154.03 27.38Q151.11 27.38 148.99 26.18Q146.87 24.98 145.73 22.78Q144.60 20.57 144.60 17.55L144.60 17.55Q144.60 14.59 145.72 12.37Q146.85 10.15 148.92 8.90Q150.99 7.65 153.77 7.65L153.77 7.65Q155.65 7.65 157.28 8.25Q158.90 8.85 160.13 10.06Q161.36 11.26 162.05 13.07Q162.74 14.88 162.74 17.34L162.74 17.34L162.74 18.78L146.70 18.78L146.70 15.57L160.23 15.57L157.84 16.42Q157.84 14.93 157.39 13.83Q156.93 12.73 156.04 12.12Q155.14 11.52 153.81 11.52L153.81 11.52Q152.49 11.52 151.56 12.13Q150.63 12.75 150.15 13.80Q149.67 14.85 149.67 16.20L149.67 16.20L149.67 18.47Q149.67 20.13 150.23 21.26Q150.78 22.39 151.78 22.95Q152.78 23.51 154.11 23.51L154.11 23.51Q155.02 23.51 155.75 23.26Q156.49 23.00 157.01 22.50Q157.53 21.99 157.81 21.26L157.81 21.26L162.45 22.13Q161.99 23.70 160.85 24.89Q159.70 26.08 157.99 26.73Q156.27 27.38 154.03 27.38Z"/></g>
        
      </svg>
    